<svg xmlns="http://www.w3.org/2000/svg" width="1080" height="1080" viewBox="0 0 1080 1080" font-family="-apple-system,Segoe UI,Roboto,Helvetica,Arial,sans-serif"><rect width="1080" height="1080" fill="#0d1117"/><rect x="72" y="74" width="26" height="26" rx="4" fill="#e0b23a"/><rect x="108" y="74" width="26" height="26" rx="4" fill="#2d333b"/><rect x="144" y="74" width="26" height="26" rx="4" fill="#2d333b"/><rect x="72" y="110" width="26" height="26" rx="4" fill="#2d333b"/><rect x="108" y="110" width="26" height="26" rx="4" fill="#e0b23a"/><rect x="144" y="110" width="26" height="26" rx="4" fill="#2d333b"/><rect x="72" y="146" width="26" height="26" rx="4" fill="#2d333b"/><rect x="108" y="146" width="26" height="26" rx="4" fill="#2d333b"/><rect x="144" y="146" width="26" height="26" rx="4" fill="#e0b23a"/><text x="200" y="118" font-size="46" font-weight="800" fill="#e6edf3">Dev<tspan fill="#58a6ff">Quest</tspan><tspan fill="#e0b23a">.gg</tspan></text><text x="200" y="150" font-size="22" fill="#8b949e">Fresh, honest, trackable.</text><text x="72" y="290" font-size="44">🍁</text><text x="138" y="292" font-size="46" font-weight="700" fill="#e6edf3">Game jobs in Canada</text><text x="138" y="334" font-size="24" fill="#8b949e">435 open roles across Canada · newest 6 below</text><text x="72" y="430" font-size="31" font-weight="700" fill="#e6edf3">Systems Engineer</text><text x="72" y="460" font-size="23" fill="#58a6ff">Electronic Arts (HQ)</text><text x="1008" y="430" font-size="24" font-weight="600" fill="#8b949e" text-anchor="end">Vancouver, BC</text><line x1="72" y1="470" x2="1008" y2="470" stroke="#21262d"/><text x="72" y="512" font-size="31" font-weight="700" fill="#e6edf3">Artiste d'environnement</text><text x="72" y="542" font-size="23" fill="#58a6ff">Motive Montreal</text><text x="1008" y="512" font-size="24" font-weight="600" fill="#8b949e" text-anchor="end">Montreal, QC</text><line x1="72" y1="552" x2="1008" y2="552" stroke="#21262d"/><text x="72" y="594" font-size="31" font-weight="700" fill="#e6edf3">Production Director</text><text x="72" y="624" font-size="23" fill="#58a6ff">BioWare</text><text x="1008" y="594" font-size="24" font-weight="600" fill="#8b949e" text-anchor="end">Edmonton, AB</text><line x1="72" y1="634" x2="1008" y2="634" stroke="#21262d"/><text x="72" y="676" font-size="31" font-weight="700" fill="#e6edf3">Senior Technical Game Designer</text><text x="72" y="706" font-size="23" fill="#58a6ff">Netflix Games</text><text x="1008" y="676" font-size="24" font-weight="600" fill="#8b949e" text-anchor="end">Canada - Remote</text><line x1="72" y1="716" x2="1008" y2="716" stroke="#21262d"/><text x="72" y="758" font-size="31" font-weight="700" fill="#e6edf3">Senior Technical Dialogue Designer</text><text x="72" y="788" font-size="23" fill="#58a6ff">Activision</text><text x="1008" y="758" font-size="24" font-weight="600" fill="#8b949e" text-anchor="end">Toronto, ON</text><line x1="72" y1="798" x2="1008" y2="798" stroke="#21262d"/><text x="72" y="840" font-size="31" font-weight="700" fill="#e6edf3">UI Software Engineer</text><text x="72" y="870" font-size="23" fill="#58a6ff">2K</text><text x="1008" y="840" font-size="24" font-weight="600" fill="#8b949e" text-anchor="end">Burnaby, BC</text><line x1="72" y1="930" x2="1008" y2="930" stroke="#21262d" stroke-width="1"/><text x="72" y="980" font-size="24" fill="#8b949e">as of Jul 9, 2026 · updated hourly</text><text x="1008" y="980" font-size="26" font-weight="700" fill="#58a6ff" text-anchor="end">devquest<tspan fill="#e0b23a">.gg</tspan></text></svg>